<svg width="50" height="58" viewBox="0 0 50 58" fill="none" stroke="#333333" xmlns="http://www.w3.org/2000/svg">
<path d="M5.23445 11.8182H44.7655M5.23445 11.8182H1V4.81818H19.9474M5.23445 11.8182L6.38636 23.1136M44.7655 11.8182H49V4.81818H30.0526M44.7655 11.8182L43.6136 23.1136M42.4617 34.4091H7.53828M42.4617 34.4091L43.6136 23.1136M42.4617 34.4091L41.3098 45.7045M7.53828 34.4091L6.38636 23.1136M7.53828 34.4091L8.69019 45.7045M6.38636 23.1136H43.6136M41.3098 45.7045L40.1579 57H25H9.8421L8.69019 45.7045M41.3098 45.7045H8.69019M30.0526 4.81818V1H19.9474V4.81818M30.0526 4.81818H19.9474" stroke-width="2"/>
</svg>
